<?xml version="1.0" standalone="no"?>
<!DOCTYPE svg PUBLIC "-//W3C//DTD SVG 20010904//EN"
 "http://www.w3.org/TR/2001/REC-SVG-20010904/DTD/svg10.dtd">
<svg version="1.0" xmlns="http://www.w3.org/2000/svg"
 width="600.000000pt" height="600.000000pt" viewBox="0 0 600.000000 600.000000"
 preserveAspectRatio="xMidYMid meet">
<metadata>
Created by potrace 1.11, written by Peter Selinger 2001-2013
</metadata>
<g transform="translate(0.000000,600.000000) scale(0.100000,-0.100000)"
fill="#000000" stroke="none">
<path d="M3108 4315 c-114 -67 -140 -96 -173 -201 -15 -49 -43 -119 -61 -157
-52 -102 -45 -132 51 -237 84 -91 83 -111 -6 -243 -27 -39 -47 -72 -46 -73 1
-1 43 9 92 22 50 13 97 24 106 24 22 0 44 -55 42 -105 -1 -22 -19 -85 -41
-140 -89 -221 -79 -344 45 -567 l56 -100 30 63 29 64 18 -75 c21 -94 46 -150
157 -370 113 -221 147 -325 164 -493 7 -70 15 -127 18 -126 11 0 139 186 166
238 14 29 48 117 75 197 70 209 116 271 230 315 76 29 77 28 84 -51 19 -189
195 -376 464 -493 l82 -35 0 99 c0 131 24 204 108 329 36 52 83 122 105 155
60 88 98 184 100 255 1 33 3 60 3 60 1 0 17 -6 35 -14 19 -8 94 -30 167 -49
l133 -35 -98 101 c-110 113 -144 171 -151 255 -5 63 -28 89 -135 155 l-61 37
49 0 49 0 -103 65 c-57 37 -127 79 -156 94 -45 24 -198 87 -259 106 -16 5 -9
12 40 41 66 40 139 106 160 145 7 15 18 46 23 69 l9 42 -127 -7 c-70 -3 -144
-3 -165 0 l-37 7 20 22 c25 27 41 69 41 108 0 26 -3 29 -22 25 -51 -13 -253
-28 -287 -22 -24 5 -55 25 -97 65 -108 100 -218 136 -381 123 l-81 -6 -50 36
c-27 20 -111 102 -187 182 -75 80 -140 145 -144 145 -3 0 -41 -20 -83 -45z
m345 -305 c29 -21 75 -61 104 -89 40 -39 67 -54 118 -70 73 -23 115 -27 115
-11 0 6 -4 10 -8 10 -9 0 -52 72 -52 88 0 19 112 1 163 -26 95 -51 242 -224
401 -474 l18 -27 -54 29 c-30 16 -99 40 -154 54 -54 13 -108 27 -119 32 -23 9
-23 10 38 -67 92 -115 99 -205 22 -289 -40 -43 -93 -139 -100 -182 l-7 -41
-24 29 c-62 74 -67 128 -24 228 11 27 18 51 16 53 -2 3 -38 -28 -79 -69 -61
-60 -78 -83 -92 -130 -15 -46 -16 -65 -7 -110 5 -29 9 -54 7 -56 -1 -2 -23 6
-47 18 -67 31 -104 76 -133 159 -31 91 -62 145 -112 193 -33 32 -113 77 -113
63 0 -2 20 -23 44 -46 60 -55 100 -120 125 -204 24 -83 60 -142 106 -173 40
-28 116 -57 171 -67 l41 -6 -18 53 c-21 61 -24 144 -8 185 l12 28 7 -30 c16
-71 64 -130 157 -196 l42 -29 -6 64 c-9 96 1 126 72 222 36 47 69 104 75 125
12 45 2 103 -29 154 -11 19 -19 35 -18 35 11 0 407 -144 467 -170 122 -52 226
-119 333 -215 l100 -90 27 -92 c15 -51 39 -108 54 -128 16 -20 26 -39 23 -41
-3 -3 -30 7 -61 22 -52 25 -114 83 -174 159 -15 20 -21 23 -16 10 4 -11 22
-63 40 -115 21 -60 34 -114 34 -145 0 -75 -40 -172 -111 -274 -152 -218 -196
-306 -206 -418 -3 -35 -9 -63 -12 -63 -4 0 -42 21 -86 47 -102 59 -219 176
-260 258 -26 51 -30 71 -30 140 0 44 3 89 8 101 7 20 5 21 -45 17 -93 -8 -196
-43 -257 -88 -74 -55 -110 -118 -172 -301 -60 -175 -109 -276 -120 -248 -4 11
-8 30 -8 44 -2 58 -62 209 -169 424 -148 298 -171 387 -138 527 7 31 27 82 45
114 31 55 32 57 9 50 -70 -21 -128 -87 -184 -209 l-27 -59 -25 49 c-35 68 -52
138 -52 214 0 77 15 138 60 240 45 106 51 180 17 247 -29 56 -40 63 -97 63
l-39 0 16 37 c18 45 19 103 2 135 -7 13 -38 51 -70 86 -47 50 -59 69 -59 95 0
57 14 65 54 30 40 -36 183 -109 193 -100 3 4 1 29 -5 57 -22 96 -89 214 -116
204 -10 -4 -15 9 -20 45 -9 72 18 119 43 73 5 -10 28 -31 50 -46 31 -22 43
-25 59 -17 27 14 46 65 38 104 -6 29 2 24 90 -66 52 -53 119 -115 147 -137z
m237 -80 c22 -14 3 -25 -45 -25 -24 0 -47 4 -51 8 -12 12 16 27 51 27 17 0 37
-4 45 -10z m705 -119 c-6 -5 -27 -19 -49 -31 -27 -15 -37 -17 -33 -7 4 11 -3
10 -29 -4 -27 -13 -42 -15 -67 -8 -45 13 -54 11 -31 -6 19 -14 19 -14 -2 -15
-11 0 -30 11 -43 23 l-22 24 103 6 c57 4 117 11 133 16 40 13 51 13 40 2z m16
-54 c-36 -75 -45 -79 -135 -65 l-77 12 59 21 c33 12 83 35 113 52 30 17 56 29
58 27 2 -1 -6 -23 -18 -47z m239 -104 c0 -3 -65 -31 -114 -49 -34 -12 -37 -12
-26 1 16 19 11 19 -35 -1 -35 -14 -42 -14 -82 1 -24 10 -47 14 -50 11 -3 -3 2
-8 11 -12 26 -10 18 -24 -15 -24 -17 0 -28 -4 -24 -10 3 -5 -2 -10 -12 -9 -10
0 -31 21 -48 47 l-30 47 212 0 c117 0 213 -1 213 -2z m12 -60 c-28 -55 -96
-114 -176 -153 l-67 -33 -60 59 -59 59 79 12 c84 13 189 46 256 81 22 11 41
19 43 17 2 -2 -6 -21 -16 -42z"/>
<path d="M2055 3303 c-114 -304 -145 -387 -145 -390 0 -2 27 -3 59 -3 37 0 63
5 68 13 7 11 225 585 239 629 5 16 -2 18 -58 18 l-63 0 -100 -267z"/>
<path d="M1545 3332 c-205 -85 -210 -88 -213 -118 l-3 -30 214 -87 c118 -48
219 -87 225 -87 12 0 47 59 40 66 -2 2 -76 32 -163 66 -87 35 -158 67 -157 72
1 5 70 36 154 69 84 33 157 63 162 67 10 10 -24 70 -39 69 -5 0 -104 -40 -220
-87z"/>
<path d="M2392 3386 l-20 -33 170 -68 c93 -37 166 -70 163 -74 -4 -3 -80 -35
-170 -71 l-164 -66 21 -32 c11 -17 25 -32 31 -32 15 0 409 161 425 173 7 6 12
22 10 36 -3 24 -21 33 -218 113 -118 48 -218 88 -222 88 -3 0 -15 -15 -26 -34z"/>
<path d="M2455 2375 c-5 -2 -36 -6 -67 -10 l-58 -6 0 -285 0 -284 70 0 70 0 0
295 c0 162 -1 295 -2 294 -2 0 -7 -2 -13 -4z"/>
<path d="M710 2065 l0 -275 75 0 75 0 0 110 0 110 105 0 105 0 0 -110 0 -110
75 0 75 0 0 275 0 275 -75 0 -75 0 0 -110 0 -110 -105 0 -105 0 0 110 0 110
-75 0 -75 0 0 -275z"/>
<path d="M1963 2193 c-12 -2 -33 -16 -47 -30 -22 -22 -26 -35 -26 -85 0 -76
23 -101 106 -118 78 -16 96 -26 92 -53 -3 -21 -7 -22 -100 -20 l-97 1 -6 -39
c-4 -22 -5 -42 -2 -45 2 -3 45 -10 96 -16 161 -20 238 13 248 106 11 93 -9
115 -128 144 -60 15 -75 22 -77 39 -4 29 25 37 113 28 l72 -6 6 43 c3 23 3 45
1 48 -7 6 -222 10 -251 3z"/>
<path d="M2682 2191 l-73 -6 -59 -95 -59 -95 22 -35 c12 -19 41 -65 65 -102
l43 -68 75 0 76 0 -23 38 c-13 20 -42 66 -66 101 l-43 64 22 36 c12 20 39 63
60 95 31 49 48 83 36 74 -2 -1 -36 -4 -76 -7z"/>
<path d="M1350 2018 c3 -111 9 -181 17 -195 27 -45 117 -52 233 -17 39 12 46
12 56 -1 7 -10 29 -15 63 -15 l51 0 0 200 0 200 -70 0 -70 0 0 -130 0 -130
-27 -12 c-16 -6 -46 -11 -68 -12 l-40 -1 -3 143 -3 142 -72 0 -72 0 5 -172z"/>
<path d="M2800 2180 c0 -6 21 -66 46 -133 25 -67 57 -152 71 -189 19 -52 29
-68 44 -68 24 0 24 -2 -5 -88 l-25 -72 68 0 68 0 105 280 106 280 -73 0 c-68
0 -74 -2 -81 -22 -23 -76 -87 -248 -90 -245 -3 2 -24 62 -48 133 l-44 129 -71
3 c-46 2 -71 -1 -71 -8z"/>
</g>
</svg>
